/* XPM */
static char *bitcoin641_xpm[] = {
"64 64 350 2",
"AA	c #000000",
"BA	c #030300",
"CA	c #626225",
"DA	c #97973B",
"EA	c #00006B",
"FA	c #D5D615",
"GA	c #F3F300",
"HA	c #F5F500",
"IA	c #F4F400",
"JA	c #F2F300",
"KA	c #D1D21A",
"LA	c #000092",
"MA	c #6E6E45",
"NA	c #39390B",
"OA	c #020200",
"PA	c #5A5A21",
"QA	c #9C9C3E",
"RA	c #000052",
"SA	c #D9DA17",
"TA	c #FFFD01",
"UA	c #DBD602",
"VA	c #C2C200",
"WA	c #C4C400",
"XA	c #C5C500",
"YA	c #C3C300",
"ZA	c #C0C000",
"aA	c #FEFC03",
"bA	c #D5D51B",
"cA	c #000095",
"dA	c #696944",
"eA	c #39390C",
"fA	c #010100",
"gA	c #616123",
"hA	c #D9D917",
"iA	c #FFFE01",
"jA	c #CDC005",
"kA	c #0C0002",
"lA	c #262600",
"mA	c #767600",
"nA	c #0B0002",
"oA	c #CDC105",
"pA	c #FFFE03",
"qA	c #D4D51C",
"rA	c #000096",
"sA	c #6B6B42",
"tA	c #37370B",
"uA	c #5C5C24",
"vA	c #95953C",
"wA	c #FFFF01",
"xA	c #0B0003",
"yA	c #040300",
"zA	c #060600",
"0A	c #8E8E00",
"1A	c #A5A500",
"2A	c #818100",
"3A	c #FFFF00",
"4A	c #878700",
"5A	c #050500",
"6A	c #CEC105",
"7A	c #000097",
"8A	c #6B6B45",
"9A	c #585822",
"+A	c #97973D",
"/A	c #0C0003",
"AB	c #191900",
"BB	c #7C7C00",
"CB	c #444400",
"DB	c #838300",
"EB	c #A3A300",
"FB	c #CFCF00",
"GB	c #393900",
"HB	c #E8E800",
"IB	c #1F1F00",
"JB	c #676741",
"KB	c #35350B",
"LB	c #626224",
"MB	c #93933D",
"NB	c #D8D917",
"OB	c #ABAB00",
"PB	c #E3E300",
"QB	c #B7B700",
"RB	c #F1F100",
"SB	c #CACA00",
"TB	c #B5B500",
"UB	c #8D8D00",
"VB	c #BFBF00",
"WB	c #B3B300",
"XB	c #A4A400",
"YB	c #9F9F00",
"ZB	c #676745",
"aB	c #36360B",
"bB	c #595921",
"cB	c #A2A240",
"dB	c #868600",
"eB	c #BEBE00",
"fB	c #ACAC00",
"gB	c #FBFB00",
"hB	c #FEFE00",
"iB	c #F2F200",
"jB	c #F9F900",
"kB	c #787800",
"lB	c #F8F800",
"mB	c #E9E900",
"nB	c #202000",
"oB	c #D4D51B",
"pB	c #000093",
"qB	c #686842",
"rB	c #37370C",
"sB	c #636323",
"tB	c #9B9B3F",
"uB	c #585800",
"vB	c #D7D700",
"wB	c #ECEC00",
"xB	c #848400",
"yB	c #FFFD03",
"zB	c #67673F",
"0B	c #606024",
"1B	c #96963C",
"2B	c #5E5E00",
"3B	c #F7F700",
"4B	c #D2D200",
"5B	c #BBBA00",
"6B	c #2D2D00",
"7B	c #0A0003",
"8B	c #6A6A45",
"9B	c #37370A",
"+B	c #9D9D3E",
"/B	c #7A7A00",
"AC	c #B8B800",
"BC	c #FDFD00",
"CC	c #737300",
"DC	c #A0A000",
"EC	c #9DA000",
"FC	c #040400",
"GC	c #272700",
"HC	c #F6F600",
"IC	c #FFF500",
"JC	c #E7D200",
"KC	c #222A00",
"LC	c #343400",
"MC	c #D3D300",
"NC	c #DDDD00",
"OC	c #131300",
"PC	c #969600",
"QC	c #FFFD00",
"RC	c #FF8000",
"SC	c #F82C00",
"TC	c #645000",
"UC	c #3E3E00",
"VC	c #545400",
"WC	c #A7A700",
"XC	c #4C4C00",
"YC	c #FFB700",
"ZC	c #FF9E00",
"aC	c #EEEC00",
"bC	c #696A00",
"cC	c #B6B600",
"dC	c #FAFA00",
"eC	c #5A5A00",
"fC	c #EEEE00",
"gC	c #727200",
"hC	c #4F4F00",
"iC	c #9E9E00",
"jC	c #C7C700",
"kC	c #858500",
"lC	c #2E2E00",
"mC	c #9C9C00",
"nC	c #37370D",
"oC	c #676725",
"pC	c #FCFC00",
"qC	c #9B9B00",
"rC	c #D6D600",
"sC	c #36360C",
"tC	c #98983C",
"uC	c #2B2B00",
"vC	c #757500",
"wC	c #636300",
"xC	c #D8D800",
"yC	c #E2E200",
"zC	c #CBCB00",
"0C	c #7E7E00",
"1C	c #6D6D45",
"2C	c #000066",
"3C	c #B1B100",
"4C	c #DBDB00",
"5C	c #EDED00",
"6C	c #DCDC00",
"7C	c #6A6A00",
"8C	c #D0D000",
"9C	c #EBEB00",
"+C	c #00007B",
"/C	c #D8D818",
"AD	c #363600",
"BD	c #F0F000",
"CD	c #373700",
"DD	c #747400",
"ED	c #BBBB00",
"FD	c #D1D100",
"GD	c #949400",
"HD	c #E4E400",
"ID	c #D0D11D",
"JD	c #F9F908",
"KD	c #E3DF01",
"LD	c #1D0A02",
"MD	c #E5E500",
"ND	c #B2B200",
"OD	c #D5D500",
"PD	c #0D0D00",
"QD	c #EAEA00",
"RD	c #656500",
"SD	c #1B0802",
"TD	c #E5E100",
"UD	c #EEEE0D",
"VD	c #FBFB09",
"WD	c #252500",
"XD	c #4E4E00",
"YD	c #A8A800",
"ZD	c #454500",
"aD	c #E6E600",
"bD	c #C8C800",
"cD	c #F1F10E",
"dD	c #595900",
"eD	c #AFAF00",
"fD	c #E1E100",
"gD	c #D4D400",
"hD	c #F0F00E",
"iD	c #0E0E00",
"jD	c #888800",
"kD	c #424200",
"lD	c #535300",
"mD	c #CDCD00",
"nD	c #3A3A00",
"oD	c #1D1D00",
"pD	c #0C0C00",
"qD	c #070700",
"rD	c #111100",
"sD	c #090900",
"tD	c #4B4B00",
"uD	c #939300",
"vD	c #DEDE00",
"wD	c #3B3B00",
"xD	c #3F3F00",
"yD	c #BABA00",
"zD	c #CECE00",
"0D	c #8B8B00",
"1D	c #919100",
"2D	c #EFEF00",
"3D	c #D9D900",
"4D	c #A2A200",
"5D	c #797900",
"6D	c #181800",
"7D	c #DADA00",
"8D	c #6E6E00",
"9D	c #222200",
"+D	c #333300",
"/D	c #CCCC00",
"AE	c #606000",
"BE	c #9D9D00",
"CE	c #AEAE00",
"DE	c #494900",
"EE	c #C6C600",
"FE	c #909000",
"GE	c #646400",
"HE	c #7B7B00",
"IE	c #414100",
"JE	c #4A4A00",
"KE	c #676700",
"LE	c #999900",
"ME	c #5C5C00",
"NE	c #B9B900",
"OE	c #505000",
"PE	c #B0B000",
"QE	c #A6A600",
"RE	c #6B6B00",
"SE	c #242400",
"TE	c #555500",
"UE	c #707000",
"VE	c #C9C900",
"WE	c #717100",
"XE	c #BCBC00",
"YE	c #323200",
"ZE	c #959500",
"aE	c #929200",
"bE	c #565600",
"cE	c #7D7D00",
"dE	c #1C1C00",
"eE	c #6C6C00",
"fE	c #525200",
"gE	c #979700",
"hE	c #ADAD00",
"iE	c #E7E700",
"jE	c #303000",
"kE	c #4D4D00",
"lE	c #8F8F00",
"mE	c #101000",
"nE	c #484800",
"oE	c #404000",
"pE	c #898900",
"qE	c #E0E000",
"rE	c #292900",
"sE	c #A1A100",
"tE	c #0B0B00",
"uE	c #BDBD00",
"vE	c #D1D000",
"wE	c #010000",
"xE	c #B4B400",
"yE	c #383800",
"zE	c #F8F808",
"0E	c #EBEA01",
"1E	c #473804",
"2E	c #DFDF00",
"3E	c #282800",
"4E	c #080800",
"5E	c #ECEB00",
"6E	c #EDED0D",
"7E	c #D8D718",
"8E	c #E0DC04",
"9E	c #412F04",
"+E	c #808000",
"/E	c #FFFF02",
"AF	c #D0D01D",
"BF	c #D9D817",
"CF	c #E1DC04",
"DF	c #626200",
"EF	c #171700",
"FF	c #E1DD04",
"GF	c #D4D41C",
"HF	c #E1DD03",
"IF	c #7F7F00",
"JF	c #D4D41B",
"KF	c #D8D817",
"LF	c #412F03",
"MF	c #3D3D00",
"NF	c #989800",
"OF	c #6F6F00",
"PF	c #353500",
"QF	c #000051",
"RF	c #828200",
"SF	c #696900",
"TF	c #777700",
"UF	c #4C3E03",
"VF	c #0E1200",
"WF	c #1B1B00",
"XF	c #1A1A00",
"YF	c #F1F001",
"ZF	c #F2F001",
"aF	c #FEFE02",
"bF	c #D5D516",
"cF	c #EFF000",
"dF	c #D1D11B",
"AAAAAAAAAAAAAAAAAAAAAAAAAABAAACADAEAFAGAHAIAIAIAIAIAIAIAIAIAIAIAIAIAIAHAHAIAIAIAIAIAIAHAJAKALAMANAAAOAAAAAAAAAAAAAAAAAAAAAAAAAAA",
"AAAAAAAAAAAAAAAAAAAAAAAAOAAAPAQARASATAUAVAWAWAWAWAWAWAWAWAWAWAWAXAXAWAYAZAWAWAWAWAWAWAVAUAaAbAcAdAeAAAfAAAAAAAAAAAAAAAAAAAAAAAAA",
"AAAAAAAAAAAAAAAAAAAAAAOAAAgAQARAhAiAjAkAAAAAAAAAAAAAAAAAAAAAAAAAAAAAAAlAmAAAAAAAAAAAAAAAnAoApAqArAsAtAAAfAAAAAAAAAAAAAAAAAAAAAAA",
"AAAAAAAAAAAAAAAAAAAAOAAAuAvARAhAwAjAxAAAyAOAOAAAAAAAAAAAzAOAzAAA0A1AAA2A3A4AAA5AOAOAOAyAAAxA6ApAqA7A8AtAAAfAAAAAAAAAAAAAAAAAAAAA",
"AAAAAAAAAAAAAAAAAAfAAA9A+ARAhAwAjA/AAAOAAAAAAAABBBCBDB2AAAAAAAAAEB3AFBGBHBHBIBAAAAAAAAAAOAAAxAoApAbALAJBKBAAfAAAAAAAAAAAAAAAAAAA",
"AAAAAAAAAAAAAAAAOAAALBMBRANBwAjAxAAAOAAAAAOAAAAAOBPBQBRBZASBZATBUBVB3AWBXB3AYBAABAAAAAAAAAOAAAxAoApAqArAZBaBAAfAAAAAAAAAAAAAAAAA",
"AAAAAAAAAAAAAAOAAAbBcBRAhAwAjAxAAAOAAAAAfAAAdBeBfBgBhB3A3A3A3A3AhBiBjBHAkBlBmBnBAAfAAAAAAAAAOAAAxAoApAoBpBqBrBAAfAAAAAAAAAAAAAAA",
"AAAAAAAAAAAAOAAAsBtBRAhAwAjA/AAAOAAAAAAAfAAAuBvB3A3A3A3A3A3A3A3A3A3A3A3AwBjB3AxBAAAAfAAAAAAAAAOAAAxA6AyBoBrAzBKBAAfAAAAAAAAAAAAA",
"AAAAAAAAAAOAAA0B1BRAhAwAjAxAAAOAAAAAAAfAAA2BZAPB3A3A3A3A3A3B4BHB3A3A3A3A3A3A3ARB5B6BAAAAAAAAAAAAOAAA7B6ApAqAcA8B9BAAfAAAAAAAAAAA",
"AAAAAAAAOAAAbB+BRAhAwAjA/AAAOAAAAAAAAAfAAA/BACBC3A3A3A3ARBCCAA6BDCRB3A3A3A3A3A3A3AECAABAAAAAAAAAAAOAAAxAoApAqAcAdAeAAAfAAAAAAAAA",
"AAAAAAOAAAgAQARAhAiAjAxAAAOAAAAAAAAAAAAAFCAAGCmB3A3A3A3AVAAAfAAAAACCHC3A3A3A3A3AICJCKCAAAAAAAAAAAAAAOAAAxAoApAqArAsAtAAAfAAAAAAA",
"AAAAOAAAuAvARAhAwAjAxAAAOAAAAAAAAAAAAAfAAALCMChB3A3A3A3ANCOCAAfAzAAAPC3A3A3A3AQCRCSCTCAABAAAAAAAAAAAAAOAAA7B6ApAqA7A8AtAAAfAAAAA",
"AAfAAA9A+ARAhAwAjA/AAAOAAAAAAAAAAAAAAAAAAAUCVCOB3A3A3A3A3AWCAAFCfAAAXC3B3A3A3A3AYCZCaCbCAAFCAAAAAAAAAAAAOAAAxAoApAbALAJBKBAAfAAA",
"BAAALBMBRANBwAjAxAAAOAAAAAAAAAAAAAAAAAAAfAAAAAcC3A3A3A3A3AdCxBAA5AAAeCjB3A3A3A3A3A3A3AfCgCAAAABAAAAAAAAAAAOAAAxAoApAqArAZBaBAAOA",
"AAbBcBRAhAwAjAxAAAOAAAAAAAAAAAAAAAAAAAAAfAAAhCiCjC3A3A3A3A3AlBkCAAAAlCwB3A3A3A3A3A3A3A3AHCmCAAAAfABAAAAAAAAAOAAAxAoApAoBpBqBnCAA",
"oCtBRAhAwAjA/AAAOAAAAAAAAAAAAAAAAAAAAAAAAAAA5AAAYARB3A3A3A3A3ApCqCAAAA0AlB3A3A3A3A3A3A3A3A3ArCmAAAAAAAOAAAAAAAOAAAxA6AyBoBrAzBsC",
"tCRAhAwAjAxAAAOAAAAAAAAAAAAAAAAAAAAAAAAAAAAAAAuCvCuCeB3A3A3A3A3ABCTBIBAAwCxC3AhB3A3ABCyCpC3A3ApCzC0ClAAAAAAAAAAAOAAA7B6ApAqArA1C",
"2CSAwAjA/AAAOAAAAAAAAAAAAAAAAAAAAAAAAAAAAAAAAAAAAAAA3C4C5C3A3A3A3A3A6CuBAA7CdCIAeBhB3A8CYBjB3A3A3AhB9CmCAAAAAAAAAAOAAAxAoApAoB+C",
"/CTAjA/AAAOAAAAAAAAAAAAAAAAAAAAAAAAAAAAAAAAAAAAAfAAA4A6BADPC8CBC3AhB3ABDxBCDwBHCDDED3A3AFDGDHD3A3AhB3AzCAAfAAAAAAAAAOAAAxAoAaAID",
"JDKDLDAAOAAAAAAAAAAAAAAAAAAAAAAAAAAAAAAAAAAAAAAAAAAAAAAAAAAAAAkCMD3A3A3ApCXBNDODODPDYA3A3AQDTBzC3B3AlBRDAAOAAAAAAAAAAAOAAASDTDUD",
"VDFDAAAAAAAAAAAAAAAAAAAAAAAAAAAAAAAAAAAAAAAAAAAAAAAAAAAAfAFCAAAAWDWCHA3A3A3AFBXDYDZDAAcC3A3A3AaDaDbDBBAAOAAAAAAAAAAAAAAAAAAA4BcD",
"VDMCAAAAAAAAAAAAAAAAAAAAAAAAAAfAfAAAAAAAAAAAAAAAAAAAAAAAAAAAAABAAAAAdD4B3A3A3A9C4AAAAAAAeDhB3A3AfDFCAAOAAAAAAAAAAAAAAAAAAAAAgDhD",
"VDMCAAAAAAAAAAAAAAAAAAAAAAAAfAAAAAfAAAAAAAAAAAAAAAAAAAAAAAAAfAAAfABAAAAAmCRB3A3AhBACiDAAAAjDMDvBCBAABAfAOAAAOAAAAAAAAAAAAAAAgDhD",
"VDMCAAAAAAAAAAAAAAAAAAAAAAAAAAkDZDAAAAAAAAAAAABAFCOAfAAAfAAAAAfAOAAAOAAAAAlDmDhB3A3ArCnDAAAAoDpDAAOAOAAAAAAAAAfAAAAAAAAAAAAAgDhD",
"VDMCAAAAAAAAAAAAAAAAAAfAAAqDAAQBDDWDADAArDsDAAAAAAAAAAAAAABAtDAAAAfAAAAAFCAAAAuDlB3A3AvDwDAAAAAAfAfAAAxDyDzD0DAAOAAAAAAAAAAAgDhD",
"VDMCAAAAAAAAAAAAAAAAfAAAGC1DLCHDRB2DBDFDNC3DmDeB4DDDCBAAAAXAkCVC5DAAAAAAAAOAfAAAuDhB3A3AvDwDAABAAAAA6D7D3AgBdC8DAAOAAAAAAAAAgDhD",
"VDMCAAAAAAAAAAAAAAAAAA9D+DvDPBhB3A3A3A3A3A3A3A3A3AgBHA/DcCpCVBPBAEAAOAAAAAAAAAOAAAzD3AhB3A6CWDAABAAAmABC3AxCACBEAABAAAAAAAAAgDhD",
"VDMCAAAAAAAAAAAAAAOAAAvCiCFD3A3A3A3A3A3A3A3A3A3AhB3A3A3A3A3A3AhBTBIBAAFCfAAAAA5AAAeD3A3A3A3AXAAABAAACE3A3A3A3DnDAAfAAAAAAAAAgDhD",
"VDMCAAAAAAAAAAAAAAfAAADE9CBC3A3A3A3A3A3A3A3ABC3A3A3A3AhB3A3A3A3A3AMCoDAAAAAAFCAAAAEE3A3A3A3A3AFEAAAAOD3AVAcCGAGEAAfAAAAAAAAAgDhD",
"VDMCAAAAAAAAAAAAAAAAOAAAHEgB3A3A3A3A3A3ApCWAxB0AACHDdC3A3A3A3A3A3A3APBiCIEAAAAAAPCpC3A3A3A3A3AHDpDJElBfBAAAAXBKEAAfAAAAAAAAAgDhD",
"VDMCAAAAAAAAAAAAAAAABAAALE3A3A3A3A3A3A3AjCAAAAAAAAABMEWB5C3A3A3A3A3A3A3AGA8CNEMCBC3A3A3A3A3A3AdCOEqCODAAAAAA6BABAAAAAAAAAAAAgDhD",
"VDMCAAAAAAAAAAAAfAOA5AAAPE3A3A3A3A3A3A3AQEAAqDBABAAAAAAACD1A2D3A3A3A3A3A3A3A3A3A3A3A3A3A3A3A3AgBBB/DREAAOAfAAAAAAAAAAAAAAAAAgDhD",
"VDMCAAAAAAAAOAAAAAAAAAAAYD3A3A3A3A3A3A3AZAAA5AAAAAAAfABAAAAAUCTBlB3A3A3A3A3A3A3A3A3A3A3A3A3A3A3B3C1AAABAAAAAfAAAAAAAAAAAAAAAgDhD",
"VDMCAAAAAAOAAASE7CCCXCAATE3B3A3A3A3A3A3AHCUEAABAfAAAAAAAfABAAAAAwCVEjB3A3A3A3A3A3A3A3A3A3A3A3AiBNDnBAAAAAAAAAAAAAAAAAAAAAAAAgDhD",
"VDMCAAAAOAAAWEMDpCgBlBmDCBFEhB3A3A3A3A3A3A2D/BAAAABAAAAAAAAAfABAAAAAXEvDHC3A3A3A3A3A3A3A3AhB3ANEAAAAfAAAAAAAAAAAAAAAAAAAAAAAgDhD",
"VDMCAAAAAAYEHB3AlBdC3A3ABDZEaEwB3A3A3A3A3A3AgBNDuCAAAABAAAAAAAAABAAAbEACeBMCGA3A3A3A3A3A3A3AaDCBAAOAAAAAAAAAAAAAAAAAAAAAAAAAgDhD",
"VDMCAAAAAARDhBfDFEBD3A3A3A3A4B0CWB3B3A3A3A3A3A3AHBFEfAAAAABAfAAAAAOAAAYEWB4C8CNCIA3A3AdC3BODbEAAOAAAAAAAAAAAAAAAAAAAAAAAAAAAgDhD",
"VDMCAAAAAAnD5CcEED3A3AjB3B3B3AhBYAaEXAGA3A3A3AhB3A3A6C0DdEAAAAFCAAAAOAAAAAeESB9CiB3A3AFDDDAAAAFCAAAAAAAAAAAAAAAAAAAAAAAAAAAAgDhD",
"VDMCAAAAOAAAUB0C7D3AzCfExDXCBBNEQD5CVAgEhE6CgB3A3A3A3A3AiE4DjEAAAAOAfAfAOAAAAAAEOBVAyCdCHA/DWEAAOAAAAAAAAAAAAAAAAAAAAAAAAAAAgDhD",
"VDMCAAAAAAAAAAAAXE3AkEAAAAAAAAAAABRDOBWAzClEGEWBiE3A3A3A3A3AHBXBSEAAAAAAAAOAAAAAAAAAmEUEPB3AdCcEAAOAAAAAAAAAAAAAAAAAAAAAAAAAgDhD",
"VDMCAAAAAAAAfAAAxDNCkCAAOAfAOAFCAAAAAAAAnEoEAAAASEpEFBjB3A3A3A3AqEwC0CIEAAfAAAfAFCAAAAAA0CBC3AVBAAFCAAAAAAAAAAAAAAAAAAAAAAAAgDhD",
"VDMCAAAAAAAAAAOAAACB0CAAfAAAAAAAAAfAFCFCAAAA5AFCAAAAAARDZAIA3A3A3A3ByCSEAAAAfAAAAASEhCrEfBwB3AWCAABAAAAAAAAAAAAAAAAAAAAAAAAAgDhD",
"VDMCAAAAAAAAAAAAOAAAAAOAAAAAAAAAAAfAAAAAAAAAAAAAfAFCAAAAAAkDEB9C3A3ApCsEjE2AtEAAAAnDQEXEuEHDWAWDAAAAAAAAAAAAAAAAAAAAAAAAAAAAgDhD",
"VDvEAAwEAAAAAAAAAAfAOAAAAAAAAAAAfAAAoEACeBxE4AkEAAAAOAOAfAAAAAADZA3A3ABC9CYDAAAAAAAAAAIBAAyEAAAAfAAAAAAAAAAAAAAAAAAAAAAAwEAA4BcD",
"zE0E1EAABAAAAAAAAAAAAAAAAAAAAAAAfAAAuB2EwB3A3A3BQB3EAABAAAfAFCAAAAQE3A3A3AuDAA4EPDAAOAAAAAAAAAfAAAAAAAAAAAAAAAAAAAAAAABAAA1E5E6E",
"7EwA8E9EAABAAAAAAAAAAAAAAAAAAAAAAAfAAA4EOCAEeBhB3AyCAEAAFCAAAAfAAAAA4DhB3AGA+EsEdDAAfAAAAAAAAAAAAAAAAAAAAAAAAAAAAAAABAAA9E8E/EAF",
"2CBFwACF9EAABAAAAAAAAAAAAAAAAAAAAAAAAAAAAAAAAAlElB3A9CDFAAFCAAAAfAAAAAPE3A3A3AFBEFAAAAAAAAAAAAAAAAAAAAAAAAAAAAAAAABAAA9EFF/EGF+C",
"tCRA/CwACF9EAABAAAAAAAAAAAAAAAAAAAAAAAAAAAOABAAAdBpC3A9CwCAABAAAAAfAAAPDNC3A3AaEAAFCAAAAAAAAAAAAAAAAAAAAAAAAAAAABAAA9EHF/EGFcA1C",
"oCtBRABFwACF9EAABAAAAAAAAAAAAAAAAAAAAAAAAAAAAABAAATB3A3AQDOEAAOAAAAABAAAIFBC3AMCAAAAfAAAAAAAAAAAAAAAAAAAAAAAAABAAA9EFF/EJFrAzBsC",
"AAbBcBRAKFwACFLFAABAAAAAAAAAAAAAAAAAAAAAAAAAAAfAAACBIA3A3AgDAAAAAAAAAAAAiDvD3AIAMFAAAAfAAAAAAAAAAAAAAAAAAAAABAAA9EHF/EGFLAqBnCAA",
"BAAALBMBRABFwACFLFAABAAAAAAAAAAAAAAAAAAAAAAAAABAAAsE3A3A3A3ANFAA5AAAAABAAAeB3AhBGDJEoEAAfAAAAAAAAAAAAAAAAABAAA9EHF/EGFrAZBaBAAOA",
"AAfAAA9A+ARABFwACFLFAABAAAAAAAAAAAAAAAAAAAAAAAOAAAlEHA3A3A3AHAOFAA5AFC4EAAXE3A3A3BzDPFAAAAAAAAAAAAAAAAAABAAA9EHF/EGFLAJBKBAAfAAA",
"AAAAOAAAuAvARAKFwACF9EAABAAAAAAAAAAAAAAAAAAAAAAAAAdEcC3B3A3A3AfCCCAAAAAAuB5C3A3AzCuCAAfAAAAAAAAAAAAAAABAAA9EHF/EGF7A8AtAAAfAAAAA",
"AAAAAAOAAAgAQARABFwACF9EAABAAAAAAAAAAAAAAAAAAAAAOAAAoEcEjB3A3A3AHCyDBEYDmB3AhB3AOBAA5AAAAAAAAAAAAAAABAAA9EFF/EGFrAsAtAAAfAAAAAAA",
"AAAAAAAAOAAAbB+BQFBFwACFLFAABAAAAAAAAAAAAAAAAAAAAAOAAAAADChB3A3A3A3A3A3A3A3A3A3A0AAABAAAAAAAAAAAAABAAA9EHF/EGFcAdAeAAAfAAAAAAAAA",
"AAAAAAAAAAOAAA0B1BRA/CwACFLFAABAAAAAAAAAAAAAAAAAAAAAfAfAAANE3A3A3A3A3A3A3A3A3AIADEAAfAAAAAAAAAAABAAA9EHF/EGFcA8B9BAAfAAAAAAAAAAA",
"AAAAAAAAAAAAOAAAsBtBRABFwACFLFAABAAAAAAAAAAAAAAAAAAAAAOAAAOE2D3A3A3A3A3A3A3A3AeBAAfAAAAAAAAAAABAAA9EHF/EJFrAzBKBAAfAAAAAAAAAAAAA",
"AAAAAAAAAAAAAAOAAAbBcBRAKFwACFLFAABAAAAAAAAAAAAAAAAAAAAAAAuCiE3A3A3A3A3A3A3ABDhCAAfAAAAAAAAABAAA9EHF/EGFLAqBrBAAfAAAAAAAAAAAAAAA",
"AAAAAAAAAAAAAAAAOAAALBMBRABFwACFLFAABAAAAAAAAAAAAAAAAAOAAAdB2EjC3A3A3A3A3AlBRFAABAAAAAAAAABAAA9EHF/EGFrAZBaBAAfAAAAAAAAAAAAAAAAA",
"AAAAAAAAAAAAAAAAAAfAAA9A+ARABFwACFLFAABAAAAAAAAAAAAAAAOAAASF+EAAGD6ClBlB7DTFAABAAAAAAAAABAAA9EHF/EGFLAJBKBAAfAAAAAAAAAAAAAAAAAAA",
"AAAAAAAAAAAAAAAAAAAAOAAAuAvARAKFwACF9EAAAAAAAAAAAAAAAAAAAAAAAAAAAABACBJEAAAAAAAAAAAAAAAAAA9EHF/EGF7A8AtAAAfAAAAAAAAAAAAAAAAAAAAA",
"AAAAAAAAAAAAAAAAAAAAAAOAAAgAQARABFwA8EUFVFWFXFXFXFXFXFXFXFXFABXFoDEFpDtEEFdEXFXFXFXFWFVFUF8E/EGFrAsAtAAAfAAAAAAAAAAAAAAAAAAAAAAA",
"AAAAAAAAAAAAAAAAAAAAAAAAOAAAPAQAQFhAwAYFHDMDMDMDMDMDMDMDMDMDMDMDMDMDMDMDMDMDMDMDMDMDMDHDZFaFJFcAdAeAAAfAAAAAAAAAAAAAAAAAAAAAAAAA",
"AAAAAAAAAAAAAAAAAAAAAAAAAABAAACADAEAbFBDRBRBRBRBRBRBRBRBRBRBRBRBRBRBRBRBRBRBRBRBRBRBRBRBcFdFLAMANAAAOAAAAAAAAAAAAAAAAAAAAAAAAAAA"
};
