/* XPM */
static char *bitcoin161_xpm[] = {
"16 16 159 2",
"AA	c #DCDA09",
"BA	c #E8E60C",
"CA	c #FFFF56",
"DA	c #FFFF20",
"EA	c #A5A105",
"FA	c #565500",
"GA	c #555500",
"HA	c #4D4D00",
"IA	c #777700",
"JA	c #737300",
"KA	c #575600",
"LA	c #A39F05",
"MA	c #FFFF26",
"NA	c #FFFFFF",
"OA	c #E6E40D",
"PA	c #DAD709",
"QA	c #FFFF7D",
"RA	c #A9A406",
"SA	c #151300",
"TA	c #191900",
"UA	c #A6A600",
"VA	c #AAAA00",
"WA	c #D3D300",
"XA	c #8A8A00",
"YA	c #000000",
"ZA	c #1D1B01",
"aA	c #A5A006",
"bA	c #FFFF27",
"cA	c #FFFF40",
"dA	c #FFFF1F",
"eA	c #A8A306",
"fA	c #1D1B00",
"gA	c #696900",
"hA	c #FFFF00",
"iA	c #686800",
"jA	c #A5A600",
"kA	c #664E00",
"lA	c #1E1B01",
"mA	c #FFFF25",
"nA	c #FFFF91",
"oA	c #A7A206",
"pA	c #1A1800",
"qA	c #272700",
"rA	c #FEFE00",
"sA	c #A3A300",
"tA	c #313200",
"uA	c #FFFC00",
"vA	c #F2EA00",
"wA	c #505100",
"xA	c #1B1901",
"yA	c #A9A506",
"zA	c #1B1900",
"0A	c #050500",
"1A	c #030300",
"2A	c #404000",
"3A	c #C6C600",
"4A	c #C7C700",
"5A	c #A4A600",
"6A	c #CDD100",
"7A	c #B1B100",
"8A	c #1C1A01",
"9A	c #A6A106",
"+A	c #686702",
"/A	c #020200",
"AB	c #454500",
"BB	c #CFCF00",
"CB	c #6B6A00",
"DB	c #828200",
"EB	c #646403",
"FB	c #686802",
"GB	c #060600",
"HB	c #848400",
"IB	c #C0C000",
"JB	c #9F9F00",
"KB	c #909000",
"LB	c #161600",
"MB	c #CBCB00",
"NB	c #4E4E00",
"OB	c #414100",
"PB	c #BABA00",
"QB	c #656503",
"RB	c #D8D800",
"SB	c #787800",
"TB	c #8B8B00",
"UB	c #F9F900",
"VB	c #DEDE00",
"WB	c #676700",
"XB	c #F1F100",
"YB	c #636303",
"ZB	c #5D5D02",
"aB	c #2F2F00",
"bB	c #8E8E00",
"cB	c #CACA00",
"dB	c #9A9A00",
"eB	c #DCDC00",
"fB	c #242400",
"gB	c #5B5B02",
"hB	c #D2D200",
"iB	c #7C7C00",
"jB	c #D6D600",
"kB	c #CDCD00",
"lB	c #5D5D00",
"mB	c #484800",
"nB	c #BEBE00",
"oB	c #070700",
"pB	c #1D1D00",
"qB	c #141400",
"rB	c #333300",
"sB	c #2D2D00",
"tB	c #A5A500",
"uB	c #BFBF00",
"vB	c #151500",
"wB	c #868600",
"xB	c #040400",
"yB	c #656403",
"zB	c #B3AF06",
"0B	c #211F00",
"1B	c #0B0B00",
"2B	c #6B6B00",
"3B	c #818100",
"4B	c #6A6A00",
"5B	c #211F01",
"6B	c #B0AB06",
"7B	c #FFFF1E",
"8B	c #B4B006",
"9B	c #201E00",
"+B	c #AEAE00",
"/B	c #B3B300",
"AC	c #3F3F00",
"BC	c #201D01",
"CC	c #B2AD06",
"DC	c #FFFF24",
"EC	c #FFFF3F",
"FC	c #B5B006",
"GC	c #1F1D00",
"HC	c #010100",
"IC	c #262600",
"JC	c #E3E300",
"KC	c #E7E700",
"LC	c #383800",
"MC	c #221F01",
"NC	c #FFFF8D",
"OC	c #ECEB0C",
"PC	c #FFFF79",
"QC	c #B4AF06",
"RC	c #5B5B00",
"SC	c #FAFA00",
"TC	c #939300",
"UC	c #EBE90C",
"VC	c #E2E009",
"WC	c #ECEA0C",
"XC	c #FFFF55",
"YC	c #B0AD05",
"ZC	c #707000",
"aC	c #767600",
"bC	c #696A00",
"cC	c #AFAB05",
"dC	c #EAE90C",
"eC	c #E0DE09",
"AABACADAEAFAGAHAIAJAKALAMANAOAPA",
"BAQADARASATAUAVAWAXAYAZAaAbAYAOA",
"cAdAeAfAYAgAhAiAjAhAkAYAlAaAmAnA",
"dAoApAYAYAqArAsAtAuAvAwAYAxAaAmA",
"yAzAYA0A1AYA2A3A4A5A6AhA7AYA8A9A",
"+AYA1A1A1AYA/AYAABBBCBDBABYAYAEB",
"FBYAGBHB4AIBJBKBLBYAMBNBOBPBYAQB",
"FBYAGBRBhASBTBUBVBWBRBXBJAABYAYB",
"ZBaBbBcBhAJAYA/AdBhAhAeBfBYAYAYB",
"gBABhBiBUAjBkBlBYAmBnBDBYAoBYAEB",
"+AYApBYAqBrBsBtBuBvBLBwBxB1AYAyB",
"zB0BYAxB1B2B3BYA4BPB/AYA1AYA5B6B",
"7B8B9BYAGBYA+BJBYA/BACYAYABCCCDC",
"ECdAFCGCYAHCICJCnBKCLCYAMCCCDCNC",
"OCPCdAQCGCYAYARCSCTCYA5BCCmAYAUC",
"VCWCXCDAYCgAZCgAaCbCiAcCmANAdCeC"
};
