/* XPM */
static char *bitcoin32_xpm[] = {
"32 32 271 2",
"AA	c #000000",
"BA	c #999925",
"CA	c #FFFF03",
"DA	c #FFFF00",
"EA	c #EDEE0D",
"FA	c #FFFF11",
"GA	c #EEF217",
"HA	c #E8E604",
"IA	c #C4C400",
"JA	c #C7C700",
"KA	c #C9C900",
"LA	c #CBCB00",
"MA	c #BCBC00",
"NA	c #C2C200",
"OA	c #BABA00",
"PA	c #C8C800",
"QA	c #C5C400",
"RA	c #E7E505",
"SA	c #F0F519",
"TA	c #FFFF15",
"UA	c #EAEB0E",
"VA	c #F6F606",
"WA	c #F2F207",
"XA	c #959526",
"YA	c #FFFF02",
"ZA	c #EBF216",
"aA	c #EDE806",
"bA	c #413A01",
"cA	c #070600",
"dA	c #030300",
"eA	c #020200",
"fA	c #010100",
"gA	c #333300",
"hA	c #353500",
"iA	c #717100",
"jA	c #090900",
"kA	c #413B01",
"lA	c #ECE607",
"mA	c #EEF518",
"nA	c #EAEB0F",
"oA	c #F8F705",
"pA	c #F5F507",
"qA	c #929226",
"rA	c #939326",
"sA	c #FFFF01",
"tA	c #ECED0D",
"uA	c #FFFF10",
"vA	c #EBF116",
"wA	c #3E3701",
"xA	c #070700",
"yA	c #6C6C00",
"zA	c #909000",
"0A	c #616100",
"1A	c #414100",
"2A	c #A9A900",
"3A	c #323200",
"4A	c #040400",
"5A	c #3F3801",
"6A	c #ECE707",
"7A	c #EDF518",
"8A	c #FFFF14",
"9A	c #E9EA0F",
"+A	c #F9F905",
"/A	c #909027",
"AB	c #9B9B25",
"BB	c #FCFC04",
"CB	c #3D3701",
"DB	c #050500",
"EB	c #797900",
"FB	c #F0F000",
"GB	c #FEFE00",
"HB	c #FBFB00",
"IB	c #E7E700",
"JB	c #DEDF00",
"KB	c #9A9A00",
"LB	c #EDF519",
"MB	c #F5F506",
"NB	c #F1F108",
"OB	c #979726",
"PB	c #EDED0D",
"QB	c #060500",
"RB	c #151500",
"SB	c #BDBD00",
"TB	c #C1C100",
"UB	c #696900",
"VB	c #DADA00",
"WB	c #899800",
"XB	c #040300",
"YB	c #F3F307",
"ZB	c #AFAF00",
"aB	c #6A6A00",
"bB	c #D4D400",
"cB	c #F19200",
"dB	c #1D1100",
"eB	c #050400",
"fB	c #F7F706",
"gB	c #000100",
"hB	c #707000",
"iB	c #DEDE00",
"jB	c #1D1D00",
"kB	c #989700",
"lB	c #F8F700",
"mB	c #FFC200",
"nB	c #C4BD00",
"oB	c #0E1000",
"pB	c #080800",
"qB	c #FFFF0E",
"rB	c #2B2B00",
"sB	c #D5D500",
"tB	c #D1D100",
"uB	c #0E0E00",
"vB	c #515100",
"wB	c #FCFC00",
"xB	c #FBFD00",
"yB	c #DFDE00",
"zB	c #454500",
"0B	c #E1E517",
"1B	c #ECE706",
"2B	c #1E1E00",
"3B	c #FDFD00",
"4B	c #E8E800",
"5B	c #474700",
"6B	c #E9E800",
"7B	c #D9D900",
"8B	c #5F5F00",
"9B	c #3F3901",
"+B	c #EBE507",
"/B	c #E1E519",
"AC	c #EEEC07",
"BC	c #453F01",
"CC	c #1F1F00",
"DC	c #888800",
"EC	c #F8F800",
"FC	c #7B7B00",
"GC	c #7E7E00",
"HC	c #E5E500",
"IC	c #D3D300",
"JC	c #CDCD00",
"KC	c #474101",
"LC	c #EAE808",
"MC	c #D7D605",
"NC	c #0A0A00",
"OC	c #252500",
"PC	c #B9B900",
"QC	c #3E3E00",
"RC	c #212100",
"SC	c #EBEB00",
"TC	c #A0A000",
"UC	c #0C0C00",
"VC	c #D1D106",
"WC	c #D7D704",
"XC	c #F7F700",
"YC	c #EAEA00",
"ZC	c #343400",
"aC	c #131300",
"bC	c #767600",
"cC	c #0F0F00",
"dC	c #0E0D00",
"eC	c #D6D604",
"fC	c #141400",
"gC	c #9F9F00",
"hC	c #6E6E00",
"iC	c #6D6D00",
"jC	c #5A5A00",
"kC	c #383800",
"lC	c #1A1A00",
"mC	c #656500",
"nC	c #0B0B00",
"oC	c #E2E200",
"pC	c #DCDC00",
"qC	c #ECEC00",
"rC	c #464600",
"sC	c #F5F500",
"tC	c #3B3B00",
"uC	c #B2B200",
"vC	c #959500",
"wC	c #CCCC00",
"xC	c #E4E400",
"yC	c #A6A600",
"zC	c #D8D800",
"0C	c #EDED00",
"1C	c #5C5C00",
"2C	c #878700",
"3C	c #F9F900",
"4C	c #4C4C00",
"5C	c #A1A100",
"6C	c #FAFA00",
"7C	c #8A8A00",
"8C	c #4A4A00",
"9C	c #2F2F00",
"+C	c #9D9D00",
"/C	c #777700",
"AD	c #2E2E00",
"BD	c #BEBE00",
"CD	c #838300",
"DD	c #929200",
"ED	c #D8D804",
"FD	c #262600",
"GD	c #C0C000",
"HD	c #C6C600",
"ID	c #4B4B00",
"JD	c #D7D700",
"KD	c #2C2C00",
"LD	c #565600",
"MD	c #989800",
"ND	c #AAAA00",
"OD	c #DDDD00",
"PD	c #808000",
"QD	c #CECE00",
"RD	c #646400",
"SD	c #7D7D00",
"TD	c #E9E900",
"UD	c #D7D705",
"VD	c #363600",
"WD	c #2D2D00",
"XD	c #5D5D00",
"YD	c #F2F200",
"ZD	c #E0E000",
"aD	c #484800",
"bD	c #010000",
"cD	c #F4F207",
"dD	c #564F01",
"eD	c #AEAE00",
"fD	c #202000",
"gD	c #585101",
"hD	c #F0EE08",
"iD	c #D8DB17",
"jD	c #F7F406",
"kD	c #504901",
"lD	c #181800",
"mD	c #E1E100",
"nD	c #292900",
"oD	c #524A01",
"pD	c #F7F207",
"qD	c #D5DA19",
"rD	c #FFFF0D",
"sD	c #DAE016",
"tD	c #F8F406",
"uD	c #949400",
"vD	c #F7F307",
"wD	c #D9E118",
"xD	c #EAEB0D",
"yD	c #D9E119",
"zD	c #E6E70F",
"0D	c #E9EA0D",
"1D	c #DAE116",
"2D	c #626200",
"3D	c #868600",
"4D	c #272700",
"5D	c #1C1C00",
"6D	c #F3F300",
"7D	c #ADAD00",
"8D	c #E7E80E",
"9D	c #282800",
"+D	c #757500",
"/D	c #DBE116",
"AE	c #F7F306",
"BE	c #564E01",
"CE	c #060700",
"DE	c #111100",
"EE	c #060600",
"FE	c #F6F207",
"GE	c #DAE218",
"HE	c #F8F805",
"IE	c #DFE317",
"JE	c #F1F004",
"KE	c #DBDA00",
"LE	c #DBDB00",
"ME	c #DFDF00",
"NE	c #F1F005",
"OE	c #DFE419",
"AAAAAABACADAEAFAGAHAIAJAKAKALALAMANAOAPAJAQARASATAUAVAWAXAAAAAAA",
"AAAAXAYADAEAFAZAaAbAAAcAdAeAAAfAgAhAiAAAjAAAkAlAmATAnAoApAqAAAAA",
"AArAsADAtAuAvAaAwAAAfAxAyAzA0A1AOA2AIA3AAA4AAA5A6A7A8A9A+AVA/AAA",
"ABBBsAEAuAZAaACBAADBAAEBFBDAGBDAHBIBJBKBAA4A4AAA5AlALB8AUAMBNBOB",
"CADAPBuAZAaACBAAQBAARBSBDADATBUBVBDAHBDAWBAAXB4AAA5AlA7A8A9AVAYB",
"DAtAuAZAaACBAA4AAAAAeAZBDADAaBAARBbBDADAcBdBAAeB4AAA5A6A7A8A9AfB",
"tAuAvAaAwAAA4AAAgBfAAAhBDADAiBjBAAkBDAlBmBnBoBAAdApBAA5AlA7A8A9A",
"qBZAaACBAA4AAAAAAAfAAArBsBDADAtBuBvBDAwBxBDAyBzBAAAA4AAA5AlALBFA",
"0B1BwAAA4AAAAAAAAAAAAApB2BSB3BDA4B3A5BwB6BIB7BDANA8BAA4AAA9B+B/B",
"ACBCAA4AAAAAAAfAAAAAAAAAxAjBCCDCECGBFCMAGCHCICJCDAMAAAfADBAAKCLC",
"MCNCAAAAAAAAfAfAdA4A4A4A4AfAfAAAOCPCDAJAQCRCSCDATCUCAAdAAAAAUCVC",
"WCUCAAfAAAfAAANCjAAAAAAAAAAAfAeAfAAA0AXCYCZCaCbCcCAAdAAAfAAAdCVC",
"eCNCAAfAfAAAfChBgChCiCjChADB3AkCNC4AAAlC7BDAzBAAAA1AVBmCAAAAnCVC",
"eCNCAAeAAAcCKBwBGBDADAGBDAoCpCqCrCAAxAAAvBDAsCtCAAuCDAvCAAAAnCVC",
"eCNCAAeAAANCwCDAECDAxCyCzCDAGBDA0C1CnCAA2CDADAIAlCIAmChBAAAAnCVC",
"eCjAAAeAeAAAOADA3CDA4CAAxA3A5C6CDADAHCsBGBDADA0C7C8CAAuBAAAAnCVC",
"eCNCAAxA9CdA+CDAXCDA/CAAdAfAAAADPCDAGBDAGBGB3BGB/CAADBfAAAAAnCVC",
"WCpBeABDDAxCCDKADADAwBbCeAAAdAfAAADDsCwBHB3CDA2AAAdAAAfAfAAAnCVC",
"EDfAFDGDIADA3CwCHDqCwBDAICIDdAAAeAdAmCJDDADADD4AfAfAAAAAfAAAnCVC",
"eCNCAAKDVBLDUC4CGCMDNDuCECDAODjCdAdAAAfCIDPDQDRDAAeAAAAAfAAAnCVC",
"WCUCAAAAIDADAAeAAAAA4AAA2BSDTDDAJC4CAA4A4AdALAtBAAfAAAAAfAAAuBVC",
"UDNCAAeAfA4AfA4AAAVD0AWDAAAAxAXDYDZDiCfAjAaDhBgAAAeAAAAAbDAAUCVC",
"cDdDAAeBeAfAAAeAAAaDKBqCeDnCAAAAfDIBJDtCaCAAfAAAAAAAAAAADBAAgDhD",
"iDjDkDAADBAAAAAAAAfAAAlDmDJANCDBAAnDGBwCfAeA4AeAAAAAAADBAAoDpDqD",
"rDsDtDkDAADBAAAAAAeAxAAAZCDAuCAAjAAAuDYDjAAAfAAAAAAADBAAoDvDwDuA",
"xDuAsDtDkDAADBAAAAAAeAAAkCDADAyAAAAALDDAzAjAAAfAAADBAAoDvDyD8AzD",
"DA0DuA1DtDkDAADBAAAAfAAADB2CDA3BEB3ASBDA2DAAeAAADBAAoDvDwD8AzDfB",
"CADAxDuAsDtDkDAADBAAAAAAeAAA3DDAwBDADAHB4DAAeADBAAoDvDyD8AzDVAYB",
"ABBBsAxDuAsDtDkDAADBfAfAdAAA5D6DDAHBDA7DAAdADBAAoDvDyD8A8DMBNBOB",
"AArAsADAxDuAsDtDkDAAeAAAeAAA9D+DSB3BMAaCAA4AAAoDvDyD8AzD+AVA/AAA",
"AAAAXAYADAxDFA/DAEBECEaCDEDEaCDBuB9CuBUCRBEEdDFEGE8A8DHEpAqAAAAA",
"AAAAAABACADAxDuAIEJEKEpCpCpCLEMEpCbBODiBpCLENEOETA8DVAWAXAAAAAAA"
};
